{
    "asset" : {
        "generator" : "Khronos glTF Blender I/O v3.2.40",
        "version" : "2.0"
    },
    "scene" : 0,
    "scenes" : [
        {
            "name" : "Scene",
            "nodes" : [
                0
            ]
        }
    ],
    "nodes" : [
        {
            "mesh" : 0,
            "name" : "Cylinder"
        }
    ],
    "meshes" : [
        {
            "name" : "Cylinder",
            "primitives" : [
                {
                    "attributes" : {
                        "POSITION" : 0,
                        "NORMAL" : 1,
                        "TEXCOORD_0" : 2
                    },
                    "indices" : 3
                }
            ]
        }
    ],
    "accessors" : [
        {
            "bufferView" : 0,
            "componentType" : 5126,
            "count" : 3392,
            "max" : [
                0.993033230304718,
                4.609824180603027,
                0.9930332899093628
            ],
            "min" : [
                -0.993033230304718,
                -4.617498397827148,
                -0.9930332899093628
            ],
            "type" : "VEC3"
        },
        {
            "bufferView" : 1,
            "componentType" : 5126,
            "count" : 3392,
            "type" : "VEC3"
        },
        {
            "bufferView" : 2,
            "componentType" : 5126,
            "count" : 3392,
            "type" : "VEC2"
        },
        {
            "bufferView" : 3,
            "componentType" : 5123,
            "count" : 20160,
            "type" : "SCALAR"
        }
    ],
    "bufferViews" : [
        {
            "buffer" : 0,
            "byteLength" : 40704,
            "byteOffset" : 0
        },
        {
            "buffer" : 0,
            "byteLength" : 40704,
            "byteOffset" : 40704
        },
        {
            "buffer" : 0,
            "byteLength" : 27136,
            "byteOffset" : 81408
        },
        {
            "buffer" : 0,
            "byteLength" : 40320,
            "byteOffset" : 108544
        }
    ],
    "buffers" : [
        {
            "byteLength" : 148864,
            "uri" : "data:application/octet-stream;base64,"
        }
    ]
}
